<svg xmlns="http://www.w3.org/2000/svg" viewBox="0 0 500 500"><g id="freepik--background-complete--inject-15"><rect x="417.41" y="59.74" width="26.48" height="11.19" transform="translate(861.29 130.68) rotate(-180)" style="fill:#ebebeb"></rect><rect x="432.18" y="45.63" width="26.48" height="11.19" transform="translate(890.84 102.46) rotate(180)" style="fill:#ebebeb"></rect><rect x="110.57" y="163.77" width="26.48" height="11.19" transform="translate(247.61 338.72) rotate(180)" style="fill:#ebebeb"></rect><rect x="125.34" y="149.66" width="26.48" height="11.19" transform="translate(277.16 310.5) rotate(180)" style="fill:#ebebeb"></rect><rect x="140.34" y="163.77" width="26.48" height="11.19" transform="translate(307.16 338.72) rotate(180)" style="fill:#ebebeb"></rect><rect x="41.34" y="45.63" width="26.48" height="11.19" transform="translate(109.16 102.46) rotate(180)" style="fill:#ebebeb"></rect><rect x="56.11" y="271.65" width="26.48" height="11.19" transform="translate(138.71 554.49) rotate(180)" style="fill:#ebebeb"></rect><rect x="41.34" y="257.54" width="26.48" height="11.19" transform="translate(109.16 526.27) rotate(180)" style="fill:#ebebeb"></rect><rect x="417.41" y="271.65" width="26.48" height="11.19" transform="translate(861.29 554.49) rotate(-180)" style="fill:#ebebeb"></rect><polygon points="376.68 135.89 311.92 135.47 312.46 52.33 360.55 52.64 377.23 52.75 377.13 68.59 376.68 135.89" style="fill:#ebebeb"></polygon><rect x="318.68" y="66.49" width="52.76" height="2.14" transform="translate(689.67 137.37) rotate(-179.63)" style="fill:#dbdbdb"></rect><rect x="318.65" y="71.88" width="52.76" height="2.14" transform="translate(689.57 148.15) rotate(-179.62)" style="fill:#dbdbdb"></rect><rect x="318.61" y="77.27" width="52.76" height="2.14" transform="translate(689.46 158.93) rotate(-179.63)" style="fill:#dbdbdb"></rect><rect x="318.57" y="82.66" width="52.76" height="2.13" transform="translate(689.36 169.7) rotate(-179.63)" style="fill:#dbdbdb"></rect><rect x="318.54" y="88.04" width="52.76" height="2.14" transform="translate(689.25 180.48) rotate(-179.62)" style="fill:#dbdbdb"></rect><rect x="318.5" y="93.43" width="52.76" height="2.14" transform="matrix(-1, -0.01, 0.01, -1, 689.14, 191.26)" style="fill:#dbdbdb"></rect><rect x="318.47" y="98.82" width="52.76" height="2.14" transform="translate(689.04 202.03) rotate(-179.62)" style="fill:#dbdbdb"></rect><rect x="318.43" y="104.21" width="52.76" height="2.14" transform="translate(688.93 212.81) rotate(-179.62)" style="fill:#dbdbdb"></rect><rect x="318.4" y="109.6" width="52.76" height="2.14" transform="translate(688.83 223.59) rotate(-179.62)" style="fill:#dbdbdb"></rect><rect x="318.36" y="114.99" width="52.76" height="2.13" transform="translate(688.72 234.37) rotate(-179.63)" style="fill:#dbdbdb"></rect><rect x="318.33" y="120.38" width="52.76" height="2.14" transform="translate(688.62 245.14) rotate(-179.62)" style="fill:#dbdbdb"></rect><rect x="318.29" y="125.77" width="52.76" height="2.13" transform="translate(688.51 255.92) rotate(-179.62)" style="fill:#dbdbdb"></rect><polygon points="386.74 162.62 323.34 149.35 340.38 67.97 387.45 77.82 400.53 96.75 386.74 162.62" style="fill:#ebebeb"></polygon><polygon points="387.45 77.82 400.53 96.75 384.21 93.33 387.45 77.82" style="fill:#dbdbdb"></polygon><rect x="343.11" y="86.58" width="36.01" height="2.13" transform="translate(696.6 247.46) rotate(-168.17)" style="fill:#dbdbdb"></rect><rect x="342" y="91.86" width="36.01" height="2.13" transform="translate(693.33 257.67) rotate(-168.17)" style="fill:#dbdbdb"></rect><rect x="340.9" y="97.13" width="36.01" height="2.14" transform="translate(690.06 267.88) rotate(-168.17)" style="fill:#dbdbdb"></rect><rect x="339.62" y="104.12" width="52.76" height="2.14" transform="translate(702.67 283.16) rotate(-168.17)" style="fill:#dbdbdb"></rect><rect x="338.51" y="109.4" width="52.76" height="2.14" transform="matrix(-0.98, -0.2, 0.2, -0.98, 699.4, 293.38)" style="fill:#dbdbdb"></rect><rect x="337.41" y="114.67" width="52.76" height="2.14" transform="translate(696.14 303.59) rotate(-168.17)" style="fill:#dbdbdb"></rect><rect x="336.3" y="119.95" width="52.76" height="2.14" transform="translate(692.87 313.8) rotate(-168.17)" style="fill:#dbdbdb"></rect><rect x="335.2" y="125.22" width="52.76" height="2.13" transform="matrix(-0.98, -0.2, 0.2, -0.98, 689.6, 324.01)" style="fill:#dbdbdb"></rect><rect x="334.1" y="130.5" width="52.76" height="2.14" transform="translate(686.34 334.22) rotate(-168.17)" style="fill:#dbdbdb"></rect><rect x="332.99" y="135.77" width="52.76" height="2.14" transform="translate(683.07 344.43) rotate(-168.17)" style="fill:#dbdbdb"></rect><rect x="331.89" y="141.05" width="52.76" height="2.14" transform="translate(679.8 354.64) rotate(-168.17)" style="fill:#dbdbdb"></rect><rect x="330.78" y="146.32" width="52.76" height="2.13" transform="translate(676.54 364.85) rotate(-168.17)" style="fill:#dbdbdb"></rect><polygon points="135.73 138.71 212.75 139.97 213.54 88.46 136.52 87.2 135.73 138.71" style="fill:#ebebeb"></polygon><polygon points="138.98 135.56 209.61 136.71 210.29 91.61 139.66 90.46 138.98 135.56" style="fill:#fff"></polygon><path d="M145.85,104.62a7.69,7.69,0,1,0,7.81-7.56A7.69,7.69,0,0,0,145.85,104.62Z" style="fill:#dbdbdb"></path><polygon points="160.91 135.99 209.56 136.78 185.77 103.41 160.91 135.99" style="fill:#dbdbdb"></polygon><polygon points="141.84 135.69 182 136.34 162.27 114.55 141.84 135.69" style="fill:#ebebeb"></polygon><polygon points="107.39 175.93 182.46 158.66 170.85 108.46 95.78 125.73 107.39 175.93" style="fill:#ebebeb"></polygon><polygon points="109.79 172.09 178.62 156.25 168.45 112.31 99.62 128.14 109.79 172.09" style="fill:#fff"></polygon><path d="M109,140.41a7.69,7.69,0,1,0,5.76-9.22A7.67,7.67,0,0,0,109,140.41Z" style="fill:#dbdbdb"></path><polygon points="131.18 167.24 178.59 156.32 147.49 129.65 131.18 167.24" style="fill:#dbdbdb"></polygon><polygon points="112.59 171.53 151.74 162.52 127.35 146.1 112.59 171.53" style="fill:#ebebeb"></polygon></g><g id="freepik--Shadow--inject-15"><ellipse cx="250" cy="439.5" rx="188.66" ry="20.46" style="fill:#ebebeb"></ellipse></g><g id="freepik--Floor--inject-15"><polygon points="33.44 300.46 87.58 300.21 141.72 300.13 250 299.96 358.28 300.12 412.42 300.21 466.56 300.46 412.42 300.7 358.28 300.79 250 300.95 141.72 300.79 87.58 300.7 33.44 300.46" style="fill:#263238"></polygon></g><g id="freepik--Plant--inject-15"><path d="M438.14,236.25a51.87,51.87,0,0,0-1.66,9.4c.09.15.07.74,0,.58,0,.51-.81.42-.81-.09l0-1c-1.83-2.28-4.5-3.72-6.65-5.7a12.44,12.44,0,0,1-3.65-5.81c-1.79-6.15-.11-12.68-2.26-18.82-1.85-5.3-5.18-9.9-8-14.7-3-5.08-5.16-10.41-5.38-16.36-.17-4.55.37-10.61,3.84-14,3.67-3.62,8.23-.91,11,2.32,8.16,9.36,11.93,21.19,13.46,33.29.84,6.69,1.72,13.43,1.51,20.19A53.71,53.71,0,0,1,438.14,236.25Z" style="fill:#90AFC5"></path><path d="M436.52,248.11a115.52,115.52,0,0,0-.23-19,.25.25,0,0,0,0-.07c.1-5.13.51-10.24.3-15.37a90.63,90.63,0,0,0-2.25-16.48c0-.07-.11-.05-.1,0a107.73,107.73,0,0,1,1.78,16.12q.17,4.35-.07,8.69c-.05.94-.13,1.89-.2,2.84h0a101.45,101.45,0,0,0-15.25-40.36c-.11-.17-.41,0-.3.18a105.62,105.62,0,0,1,12.42,29.93c-3.93-7.27-9.85-13.24-14.25-20.23,0,0-.09,0-.07,0,4,7.78,10.48,13.91,14.64,21.57.72,3.12,1.31,6.27,1.75,9.44a105,105,0,0,1,.94,13.12c-2.38-4.46-4.87-8.74-6.82-13.46-.05-.13-.23,0-.19.09a52.42,52.42,0,0,0,7,14.37q0,4.66-.26,9.32c-.49,8.28-1.9,16.45-2.56,24.7a.19.19,0,0,0,.38.05A190.69,190.69,0,0,0,436.52,248.11Z" style="fill:#263238"></path><path d="M427.72,184.24c0-.06-.11,0-.09,0,1.51,4.18,2.37,8.42,3.46,12.71a.16.16,0,0,0,.31-.05A45.24,45.24,0,0,0,427.72,184.24Z" style="fill:#263238"></path><path d="M466.13,201.77a62.84,62.84,0,0,1-3.47,7.15c-2.73,4.94-5.57,9.48-6.08,15.24a35.65,35.65,0,0,1-1.1,7.63,23.19,23.19,0,0,1-3,6c-2.95,4.3-6.64,8-9.38,12.47a52.81,52.81,0,0,0-6.23,15c-.07.29-.52.21-.46-.08a.14.14,0,0,0,0-.07l0-.06c-.43-12.35.56-24.79,4.32-36.62a126.13,126.13,0,0,1,6-15.24,36.13,36.13,0,0,1,8.07-11.62c2.3-2.07,7.29-6,10.56-3.92C466.87,198.65,466.75,200.23,466.13,201.77Z" style="fill:#90AFC5"></path><path d="M453.72,229.77a102,102,0,0,1-7.17,10.31c-1.2,1.56-2.41,3.11-3.61,4.68-.56.73-1.19,1.47-1.71,2.26.33-1.3.64-2.6,1-3.89a152.87,152.87,0,0,1,5.49-18.54,125.42,125.42,0,0,1,8.58-16.81c.08-.14-.15-.24-.23-.11-2.61,4.3-5.26,8.58-7.45,13.11a68,68,0,0,0-3.17,7.77,121,121,0,0,1,4.21-16.61,0,0,0,1,0-.07,0,56.78,56.78,0,0,0-4.37,17.27,0,0,0,0,0,0,0c-.54,1.6-1,3.22-1.49,4.86-1.94,6.9-3.65,13.89-5.24,20.89a74.48,74.48,0,0,1,1.2-13.73c0-.11-.14-.13-.17,0a43.86,43.86,0,0,0-1.19,14.48q-.9,4-1.75,8c-1.21,5.69-2.7,11.48-3.41,17.26a.11.11,0,0,0,.22,0c.85-3.11,1.36-6.34,2.06-9.5s1.41-6.32,2.14-9.48q1.62-6.88,3.34-13.75a25.29,25.29,0,0,1,3.35-4.58c1.22-1.54,2.44-3.09,3.62-4.66a70,70,0,0,0,5.94-9.19C453.87,229.75,453.76,229.7,453.72,229.77Z" style="fill:#263238"></path><path d="M454.25,224.48a64.4,64.4,0,0,0-7,11.16c0,.05,0,.11.08.06,2.37-3.71,4.69-7.44,7.05-11.15C454.4,224.49,454.29,224.43,454.25,224.48Z" style="fill:#263238"></path><path d="M401.68,213.48c1.6,2.76,3.43,6.07,2.74,9.38-.44,2.09-2,3.79-2.25,5.93-.62,4.72,4.08,7.83,7.49,10.06,8.48,5.56,20.11,10.52,21.65,21.89.06.4.75.3.7-.1a.19.19,0,0,0,0-.07s.05,0,.05-.07a43.69,43.69,0,0,0-.16-17.35A55.17,55.17,0,0,0,425,226.89c-5.1-8.71-10.51-17.63-18.22-24.3-2.14-1.84-6.52-5.16-8.22-1S399.72,210.12,401.68,213.48Z" style="fill:#90AFC5"></path><path d="M409.44,231.94c5.62,6.08,14.56,9.5,19.4,16.31a68.2,68.2,0,0,0-14.91-28c-.19-.21.11-.51.31-.31a55.06,55.06,0,0,1,12.18,17.64,78.3,78.3,0,0,0-5.24-13.41.15.15,0,0,1,.25-.15,51.36,51.36,0,0,1,5.65,15.08c6.38,15.44,7,33.55,5.63,49.82,0,.23-.37.24-.36,0,.36-12.83.16-25.87-2.92-38.4-.06-.26-.13-.52-.2-.78C424,242.41,415.07,239,409.34,232,409.29,232,409.38,231.87,409.44,231.94Z" style="fill:#263238"></path><path d="M408.14,226.71c2.95,2.71,5.85,5.48,8.81,8.18,0,0,0,.08,0,.06a43.18,43.18,0,0,1-9-8.06A.13.13,0,0,1,408.14,226.71Z" style="fill:#263238"></path><path d="M407.67,215a92.86,92.86,0,0,0,8.83,12.14c0,.06,0,.13-.07.08a42.74,42.74,0,0,1-8.92-12.13A.09.09,0,0,1,407.67,215Z" style="fill:#263238"></path><polygon points="420.96 300.39 446.81 300.39 443.33 265.61 424.94 265.61 420.96 300.39" style="fill:#455a64"></polygon><polygon points="424.29 271.26 443.9 271.26 443.33 265.61 424.94 265.61 424.29 271.26" style="fill:#263238"></polygon><rect x="421.77" y="261.76" width="24.23" height="5.55" transform="translate(867.77 529.07) rotate(180)" style="fill:#455a64"></rect></g><g id="freepik--Printer--inject-15"><rect x="100.43" y="179.6" width="299.13" height="120.86" style="fill:#90AFC5"></rect><rect x="94.14" y="186.27" width="6.29" height="114.19" style="fill:#263238"></rect><rect x="399.57" y="186.27" width="6.29" height="114.19" style="fill:#263238"></rect><rect x="148.21" y="179.6" width="203.58" height="120.86" style="opacity:0.1"></rect><rect x="112.99" y="285.1" width="22.66" height="7.05" style="fill:#455a64"></rect><rect x="170.81" y="251.99" width="158.38" height="48.47" style="fill:#455a64"></rect><rect x="176.63" y="258.16" width="146.73" height="42.3" style="fill:#37474f"></rect><rect x="176.63" y="258.16" width="146.73" height="18.06" style="fill:#263238"></rect><rect x="100.43" y="186.27" width="299.13" height="11.71" style="fill:#fdfeff;opacity:0.4"></rect><rect x="100.43" y="203.27" width="299.13" height="3.65" style="fill:#fdfeff;opacity:0.4"></rect><circle cx="375.68" cy="221.4" r="8.06" style="fill:#455a64"></circle><rect x="171.77" y="111.11" width="156.46" height="68.49" style="fill:#455a64"></rect><rect x="182.27" y="81.4" width="135.47" height="98.2" style="fill:#fff"></rect><path d="M317.73,81.4l-67.83.24-67.63.12.36-.36.14,98.2-.5-.5,135.46.19-.3.31.11-49Zm0,0,.19,49L318,179.6v.31h-.31l-135.46.19h-.5v-.5l.14-98.2V81h.36l67.83.12Z" style="fill:#263238"></path><rect x="366.74" y="234.57" width="17.88" height="2.57" style="fill:#455a64"></rect><rect x="366.74" y="239.48" width="17.88" height="2.57" style="fill:#455a64"></rect><polygon points="374.62 353.59 125.38 353.59 170.81 300.46 329.19 300.46 374.62 353.59" style="fill:#263238"></polygon><rect x="125.38" y="353.59" width="249.24" height="7.18" style="fill:#37474f"></rect></g><g id="freepik--Lines--inject-15"><path d="M97,168.45a23.26,23.26,0,0,1-.78-4.13,38.88,38.88,0,0,1,0-8.26,23.09,23.09,0,0,1,.78-4.13,21.45,21.45,0,0,1,.78,4.13,35.6,35.6,0,0,1,.22,4.13,38.23,38.23,0,0,1-.22,4.13A22.4,22.4,0,0,1,97,168.45Z" style="fill:#263238"></path><path d="M110,173.93a21.87,21.87,0,0,1,2.37-3.47,38.46,38.46,0,0,1,5.84-5.85,21.82,21.82,0,0,1,3.47-2.36,22.82,22.82,0,0,1-2.37,3.47,39,39,0,0,1-5.84,5.84A23.57,23.57,0,0,1,110,173.93Z" style="fill:#263238"></path><path d="M78.45,186.79a22.09,22.09,0,0,1-4.13.78,38,38,0,0,1-4.13.22,35.84,35.84,0,0,1-4.13-.22,21.35,21.35,0,0,1-4.12-.78,23,23,0,0,1,4.12-.78,41,41,0,0,1,4.13-.22,38,38,0,0,1,4.13.23A22.06,22.06,0,0,1,78.45,186.79Z" style="fill:#263238"></path><path d="M83.93,173.78a22.82,22.82,0,0,1-3.47-2.37,40.3,40.3,0,0,1-5.84-5.84,22.82,22.82,0,0,1-2.37-3.47,21.82,21.82,0,0,1,3.47,2.36,38.46,38.46,0,0,1,5.84,5.85A21.87,21.87,0,0,1,83.93,173.78Z" style="fill:#263238"></path></g><g id="freepik--Character--inject-15"><path d="M307.93,443.34c-2.38.91-71.46,2.17-74.16.62-.3-.17-.22-3.22-1.23-11.11-.06-.37-1.63-1.84-4.09-3.9-9.24-7.74-30.95-24.07-30.95-24.07L232,374.93l33.4,32.84,8.69,8.54s28.23,15.24,31,17.25S310.31,442.42,307.93,443.34Z" style="fill: rgb(255, 196, 192);"></path><path d="M307.93,443.33c-2.38.93-71.46,2.18-74.16.63-.3-.17-.21-3.22-1.24-11.11,0-.37-1.62-1.83-4.08-3.9-3.21-2.69-4.74-3.92-9.52-7.65l43.83-16.11,2.63,2.58,8.68,8.54s28.23,15.24,31,17.25S310.31,442.42,307.93,443.33Z" style="fill:#ebebeb"></path><path d="M312.69,444.29c-2.4.83-76,1.64-78.65,0-.63-.38-1.2-4.66-1.65-10.52-.06-.73-7.52-6.69-8.54-7.79L269,410.8l5.69,5.36s33.19,15.44,35.91,17.54S315.09,443.46,312.69,444.29Z" style="fill:#90AFC5"></path><path d="M311.67,441.54c-11.57-.15-62.86.35-74.3,1.08-.1,0-.09.07,0,.07,11.46.4,62.75-.47,74.3-1C311.91,441.72,311.91,441.55,311.67,441.54Z" style="fill:#263238"></path><path d="M278.33,416.64c-4.56-.79-10.11,0-13.55,3.25-.14.13.05.32.19.27a63.57,63.57,0,0,1,13.35-2.94A.29.29,0,0,0,278.33,416.64Z" style="fill:#263238"></path><path d="M281.64,418.58c-4.56-.79-10.12,0-13.56,3.25-.13.13.05.32.2.27a63.29,63.29,0,0,1,13.35-2.94A.29.29,0,0,0,281.64,418.58Z" style="fill:#263238"></path><path d="M284.94,420.52c-4.56-.79-10.11,0-13.55,3.25-.13.13.05.32.2.27a63.34,63.34,0,0,1,13.34-2.94A.29.29,0,0,0,284.94,420.52Z" style="fill:#263238"></path><path d="M288.25,422.46c-4.56-.79-10.11,0-13.55,3.25-.14.13.05.32.19.27A64.2,64.2,0,0,1,288.24,423,.29.29,0,0,0,288.25,422.46Z" style="fill:#263238"></path><path d="M286.61,406c-1.82-2.44-5.13-1.29-7,.33a24.26,24.26,0,0,0-6.89,10.5.12.12,0,0,0,.11.16.56.56,0,0,0,.72.56c3.74-1.43,7.92-2.5,11.11-5C286.51,411,288.33,408.33,286.61,406Zm-7.84,8.22c-1.83.75-3.67,1.4-5.47,2.22a71.09,71.09,0,0,1,4.16-6,25.9,25.9,0,0,1,2.38-2.64c1.34-1.25,6.67-3.93,5.92,1.07C285.35,411.61,280.94,413.34,278.77,414.24Z" style="fill:#263238"></path><path d="M261.14,415.8c3.76,1.55,8.07,1.42,12.07,1.76a.56.56,0,0,0,.53-.74.12.12,0,0,0,.06-.19,24.31,24.31,0,0,0-9.53-8.17c-2.26-1-5.76-1.21-6.83,1.63S258.94,414.89,261.14,415.8Zm-2.1-3.22c-2.1-4.6,3.76-3.5,5.4-2.68a26.13,26.13,0,0,1,3,1.87c2,1.4,3.8,3.07,5.67,4.66-1.95-.29-3.91-.41-5.87-.62C264.92,415.55,260.2,415.11,259,412.58Z" style="fill:#263238"></path><path d="M265.86,405.94,223.25,428s-44.4-40.19-48.47-40.48S111,427.76,80.92,427.89c-31.14.13-32.71-32.5-32.71-32.5L93.64,385c32.74-16.14,66.85-45.13,89.16-42.42C207,345.47,265.86,405.94,265.86,405.94Z" style="fill:#37474f"></path><path d="M255.45,400.31c-7.19,3.56-5.18,2.44-12.33,6.07-3.5,1.78-21.12,10.67-24.11,12.87a.08.08,0,0,0,.07.14c3.52-1.18,20.94-10.45,24.41-12.29,7.09-3.76,5-2.75,12.06-6.59A.11.11,0,1,0,255.45,400.31Z" style="fill:#263238"></path><path d="M215.7,417.84c-8.33-7.35-35.63-31.26-36.74-32.15a14.64,14.64,0,0,0-2.84-2.13,3,3,0,0,0-2.63.21c-1.26.59-2.5,1.23-3.75,1.85l-7.38,3.6c-9.55,4.66-19,9.44-28.66,13.95-9.26,4.33-15.86,8.41-25.52,11.74A144.67,144.67,0,0,1,78.53,422c-1.24.15-2.49.28-3.74.4-.09,0-.09.15,0,.14A119.27,119.27,0,0,0,104,417.1c9.57-3,16.07-6.77,25.16-11,9.42-4.34,18.71-9,28-13.59,4.9-2.44,9.79-4.9,14.71-7.31,1.11-.54,2.7-1.73,4-1.14a7,7,0,0,1,1.47,1.08l1.63,1.36c2.11,1.76,35.57,30.58,36.67,31.41C215.67,418,215.78,417.91,215.7,417.84Z" style="fill:#263238"></path><path d="M48.12,395.39s-5.1,29.46,9.64,41,122.66,10.18,139,4.88,16.89-31.71-1-37.84c-17-5.82-89.47-8.65-91.26-9.37-.44-.17,6.43-4.29,6.4-4.54l-16.49-5Z" style="fill:#37474f"></path><path d="M70.48,394.65c0-.13-.22-.09-.22,0a14.54,14.54,0,0,1-3.4,9.36c-2.51,2.9-6.21,4.52-9.56,6.21-.32.17-.08.67.26.57a29.14,29.14,0,0,0,5.91-2.55,14.21,14.21,0,0,0,4.45-3.7A12.73,12.73,0,0,0,70.48,394.65Z" style="fill:#263238"></path><path d="M103.34,391c-.75-1-1.57-1.87-2.35-2.79-1.84-2.2-3.69-4.4-5.63-6.52-.18-.2-.54.08-.37.3,1.3,1.7,2.68,3.35,4,5l2.09,2.55a15.61,15.61,0,0,1,2,2.48c.5.94-.16,1.75-1.14,1.85a3.39,3.39,0,0,1-2.36-.87,31.67,31.67,0,0,1-4-4.27c-.78-.87-1.56-1.75-2.35-2.61s-1.73-1.79-2.57-2.7c0-.06-.15,0-.11.09.74,1,1.41,2.05,2.14,3.05s1.48,2,2.23,3,1.46,1.85,2.22,2.75a9.17,9.17,0,0,0,2.25,2c1.4.82,3.83,1,4.58-.81A2.54,2.54,0,0,0,103.34,391Z" style="fill:#263238"></path><path d="M194.55,441.41c-5.64.11-11.27.44-16.91.56s-11.19.15-16.78.09q-16.86-.15-33.68-1.31c-11.33-.78-23.54-1.91-34.8-3.46-5.38-.75-10.84-1.37-16.16-2.52a25.48,25.48,0,0,1-12.75-6.51c-7.28-7.07-10.12-17.46-11.28-27.39-.16-1.33-.28-2.66-.39-4,0-.09-.15-.09-.14,0,.66,10.18,2.24,20.8,8.64,29A25.5,25.5,0,0,0,70.73,434c5,2,10.64,2.49,16,3.21,11.29,1.54,23.56,2.72,34.92,3.6s22.9,1.44,34.36,1.61,22.94,0,34.4-.56c1.39-.06,2.79-.15,4.18-.27C194.63,441.53,194.63,441.41,194.55,441.41Z" style="fill:#263238"></path><path d="M159,398.1c-3.55-.52-7.09-1-10.66-1.4s-7.21-.7-10.82-1c-7.14-.61-14.3-1.15-21.46-1.48-4.07-.2-8.13-.22-12.2-.16-.13,0-.12.18,0,.2,7.16.64,14.32,1.09,21.49,1.57s14.3,1.1,21.44,1.79c4.05.38,8.1.68,12.15,1A.27.27,0,0,0,159,398.1Z" style="fill:#263238"></path><path d="M111.76,389.2a55,55,0,0,0-8.22,4.39,68.07,68.07,0,0,0-7.6,5.32c-.07.06,0,.15.09.11,2.79-1.29,5.46-2.9,8.12-4.45a76.15,76.15,0,0,0,7.78-5C112.1,389.44,112,389.1,111.76,389.2Z" style="fill:#263238"></path><path d="M82.73,331.92c4.3,18.89,13.22,41.54,17,45.22,4.83,4.66,36.87,13.25,38.47,13.43,4,.4,12-28.08,7.75-28.7-6.42-.94-29.76-2.27-31.15-3.71s-11.27-14-21.37-28C86.5,320.44,80.07,320.2,82.73,331.92Z" style="fill: rgb(255, 196, 192);"></path><path d="M135.07,389a86.37,86.37,0,0,0,11.3,4.84c3.09.9,12,3.26,13.38,0,.91-2.25-4.19-4.26-7.77-5.76-1.89-.79-4.21-2.77-3.65-4,1-2.12,5.83,0,9,1.88,6.17,3.61,14.38,10.09,18.16,7,1.43-1.18-.22-3.34-2.64-5.46,3.93,2.47,8.12,4.5,9.75,3.26a2.08,2.08,0,0,0,.47-2.82,2.75,2.75,0,0,0,3-.46c1.28-1.34.66-3.31-.73-5.34a1.54,1.54,0,0,0,1.16-.76c2.71-4.12-10.8-16-15.48-17.12a118.42,118.42,0,0,0-28.3-2.73C137.35,365.8,135.06,389,135.07,389Z" style="fill: rgb(255, 196, 192);"></path><path d="M155.36,376.38a23.51,23.51,0,0,1,9.19,3.56c3.49,2.32,5.8,5,8.72,7.75.08.07,0,.19-.1.12-1.4-1.3-7.18-6.17-8.67-7.28a22.23,22.23,0,0,0-9.15-4.09A0,0,0,0,1,155.36,376.38Z" style="fill:#263238"></path><path d="M158,370.54a55.63,55.63,0,0,1,10.68,3.73c3.68,1.88,6.55,5,9.38,7.89,1.69,1.77,3.35,3.58,5,5.43.07.07,0,.2-.11.12q-4.29-4.57-8.86-8.87a29.67,29.67,0,0,0-9.74-6.18c-2.07-.79-4.2-1.42-6.33-2.06C157.89,370.59,157.91,370.53,158,370.54Z" style="fill:#263238"></path><path d="M161.83,365.43c3.52.73,6.58,1.36,9.7,3.25A50.39,50.39,0,0,1,181,376.9c1.54,1.65,3,3.35,4.48,5.08.06.07-.06.17-.12.1a117.12,117.12,0,0,0-10.71-10.66,23.26,23.26,0,0,0-6-3.91,41.84,41.84,0,0,0-6.85-2.05S161.81,365.43,161.83,365.43Z" style="fill:#263238"></path><path d="M140.56,360.32l-9.93,31.21s-26.68-7.68-31.55-13-13.8-32.46-16.42-45.63,4-12.83,10.14-4.51,21.29,28.47,22.14,28.91S140.56,360.32,140.56,360.32Z" style="fill:#90AFC5"></path><path d="M104.27,343.77c-.84,1.59-1.59,3.22-2.3,4.87-1.39,3.22-2.63,6.51-4,9.75-.3.68-.6,1.37-.92,2,0,.12-.11.24-.16.35a35.88,35.88,0,0,1-3.72,6.32c-.09-.22-.17-.45-.27-.67a35.1,35.1,0,0,0,3.53-6.13c0-.12.11-.23.16-.34.28-.6.55-1.21.81-1.82,1.38-3.22,2.62-6.51,4-9.75.7-1.62,1.43-3.22,2.25-4.79l.21-.38Zm26.31,44.57a16.31,16.31,0,0,1-5-1.43,27.81,27.81,0,0,1-4.51-2.61l-.39-.28-.44-.32a68,68,0,0,1-7.14-6.22c-5-4.93-9.6-10.26-14.46-15.35-.54-.57-1.09-1.13-1.65-1.7-.15-.16-.3-.32-.46-.47-1.76-1.79-3.57-3.53-5.47-5.18C90,353.85,89,353,87.83,352.1c0,.15.1.31.14.46,1,.78,2,1.6,2.93,2.44,1.91,1.69,3.73,3.47,5.51,5.3l.46.48c.52.53,1,1.07,1.54,1.61,4.83,5.1,9.4,10.45,14.39,15.43a69,69,0,0,0,7,6.16l.46.33c.19.15.39.29.59.43a28.34,28.34,0,0,0,4.58,2.69,16.37,16.37,0,0,0,5.14,1.46,7.26,7.26,0,0,0,.93.06l.17-.54A9.08,9.08,0,0,1,130.58,388.34Zm7.62-28.27c-2.86,5.62-5.68,11.3-9.57,16.24a35,35,0,0,1-3.53,3.87,26.37,26.37,0,0,1-4.15,3.15l-.67.37-.53.28a18.31,18.31,0,0,1-3.56,1.44,11.55,11.55,0,0,1-2.45.54l1,.38a12.4,12.4,0,0,0,1.59-.42,19.2,19.2,0,0,0,3.86-1.61l.51-.29.48-.27a26.51,26.51,0,0,0,4.22-3.23,34.89,34.89,0,0,0,3.55-3.94c3.93-5.05,6.73-10.8,9.59-16.47ZM94,330.09a20.37,20.37,0,0,0-3.6,2.58,25.81,25.81,0,0,0-3.51,4,36.53,36.53,0,0,0-2.43,4c.08.29.15.58.23.88a42.38,42.38,0,0,1,2.7-4.49,25.06,25.06,0,0,1,3.4-3.94,20.16,20.16,0,0,1,3.53-2.57Z" style="fill:#fff"></path><path d="M128.1,377.65c1.2-3.68,2.43-7.35,3.5-11.08.61-2.12,1.22-4.23,1.81-6.35,0-.08-.11-.13-.14-.05-1.36,3.64-2.71,7.3-3.89,11s-2.39,7.37-3.53,11.07q-1,3.17-1.73,6.37s0,.07.07,0C125.67,385,126.89,381.35,128.1,377.65Z" style="fill:#263238"></path><path d="M117.17,387.2l-1.18-.41c-2.22-.8-4.49-1.66-6.62-2.54l-.81-.33-1.27-.55-.62-.27-.23-.1-.64-.3c-.84-.39-1.65-.78-2.39-1.18l-.52-.28a18.35,18.35,0,0,1-3.29-2.17l-.27-.25-.25-.25c-4.86-5.27-13.8-32.46-16.42-45.63l-.09-.45s0-.07,0-.1c-.18-1-.33-2.24-.46-3.58v0c-.35-6.55,2.75-7.61,6.58-4.72C98.22,344.6,112.77,378.5,117.17,387.2Z" style="fill:#263238"></path><path d="M109.37,384.25,46.09,400c0-1.3,7.31-41.91,13.67-56.2,8.16-18.33,12.63-19.93,15.31-21,3.41-1.36,9.59-.95,11.08-.31,1.68.71,7.28,9.75,9.41,16.45C99.82,352.38,110.19,383.4,109.37,384.25Z" style="fill:#90AFC5"></path><path d="M100.13,353.1c-.72,1.76-1.43,3.53-2.18,5.29-.3.68-.6,1.37-.92,2,0,.12-.11.24-.16.35a34.61,34.61,0,0,1-4.12,6.85,16.16,16.16,0,0,1-3.33,3.12,3,3,0,0,1-.37.25l-.29.19a14.39,14.39,0,0,1-5,1.86,24.37,24.37,0,0,1-10.58-.36,43.11,43.11,0,0,1-7-2.48l-.88-.38-2-.9a45.71,45.71,0,0,0-9.8-3.62l-.29-.05c0-.18.09-.36.14-.54l.25,0a44.81,44.81,0,0,1,9.94,3.64c.88.4,1.76.8,2.64,1.18l.82.36a42.39,42.39,0,0,0,6.34,2.18,23.81,23.81,0,0,0,10.32.34,13.89,13.89,0,0,0,4.82-1.79l.18-.12a2.92,2.92,0,0,0,.37-.24,15.89,15.89,0,0,0,3.28-3.07,34.57,34.57,0,0,0,4.13-6.94c0-.12.11-.23.16-.34.28-.6.55-1.21.81-1.82.85-2,1.64-4,2.45-6Zm5.17,16.16c-2.19-2.39-4.38-4.78-6.62-7.13-.54-.57-1.09-1.13-1.65-1.7-.15-.16-.3-.32-.46-.47-1.76-1.79-3.57-3.53-5.47-5.18a46.28,46.28,0,0,0-8.58-6.14c-.28-.15-.55-.29-.84-.42l-.58-.28a18.87,18.87,0,0,0-8.74-1.87c-.44,0-.88.05-1.32.12l-.66.09-.64.14c-.87.19-1.7.48-2.55.72-.55.2-1.09.4-1.63.62a1.78,1.78,0,0,0-.29.12,21.09,21.09,0,0,0-2.91,1.41A27.21,27.21,0,0,0,56.19,354c-.06.2-.12.4-.17.6a27.28,27.28,0,0,1,6.46-5.1,24.06,24.06,0,0,1,3-1.47l.29-.12,1.47-.56c.84-.23,1.67-.53,2.52-.72l.64-.14.65-.09a11.45,11.45,0,0,1,1.3-.13A18.15,18.15,0,0,1,81,348.16l.58.27.81.42A46.7,46.7,0,0,1,90.9,355c1.91,1.69,3.73,3.47,5.51,5.3l.46.48c.52.53,1,1.07,1.54,1.61,2.43,2.57,4.8,5.2,7.19,7.82Zm.84,15.27a27.81,27.81,0,0,1-4.51-2.61,64.64,64.64,0,0,1-8-6.82c-1.44-1.42-2.85-2.88-4.24-4.35l-.42-.44c-3.28-3.5-6.48-7.08-9.8-10.56-.54-.57-1.09-1.13-1.65-1.69a5.32,5.32,0,0,0-.47-.48c-1.75-1.79-3.56-3.53-5.45-5.18a53,53,0,0,0-5.84-4.49,1.14,1.14,0,0,0-.23-.15q-1.23-.81-2.52-1.5a24.25,24.25,0,0,0-3.66-1.59,1.8,1.8,0,0,1-.08.21,24.88,24.88,0,0,1,3.62,1.6c.8.43,1.59.9,2.35,1.4a1.14,1.14,0,0,1,.23.15,52.53,52.53,0,0,1,5.93,4.6c1.9,1.68,3.72,3.46,5.5,5.29l.46.48c.52.53,1,1.07,1.54,1.61,3.28,3.46,6.44,7,9.7,10.54q.2.22.42.45c1.39,1.5,2.81,3,4.27,4.44a64.37,64.37,0,0,0,8,6.92,27.31,27.31,0,0,0,4.59,2.69l.09,0,.92-.23Zm-13.92-53.3a21,21,0,0,0-1.8,1.44,25.81,25.81,0,0,0-3.51,4,40.31,40.31,0,0,0-2.75,4.54c-.81,1.57-1.55,3.18-2.25,4.79l-.81,1.93-.09.22c-1,2.54-2,5.1-3.11,7.6-.26.61-.53,1.22-.82,1.82,0,.11-.1.22-.15.34a34.57,34.57,0,0,1-4.13,6.94A15.66,15.66,0,0,1,69,368.3a12.16,12.16,0,0,1-2.82,1.28,9,9,0,0,1-.89.25c-.36.1-.73.18-1.1.25a23.85,23.85,0,0,1-10.33-.34c-.54-.13-1.08-.28-1.61-.45,0,.19-.09.38-.14.58.53.17,1.07.32,1.61.45a24.53,24.53,0,0,0,10.58.35,17.58,17.58,0,0,0,1.87-.46c.28-.08.56-.17.83-.27a13.1,13.1,0,0,0,2.32-1.13,16.1,16.1,0,0,0,4-3.56,34.61,34.61,0,0,0,4.12-6.85c0-.11.11-.22.16-.34.32-.68.62-1.36.92-2.05,1.09-2.52,2.08-5.06,3.12-7.58a1,1,0,0,1,.09-.21c.26-.66.53-1.31.81-2A52.67,52.67,0,0,1,87.41,337a25.06,25.06,0,0,1,3.4-3.94c.54-.48,1.09-.94,1.67-1.36C92.4,331.56,92.31,331.39,92.22,331.23Z" style="fill:#fff"></path><path d="M66.31,329.22C56,339.88,30.52,380.6,38.2,388.26s51.25-1.61,63.55-7.18c3.66-1.65-9.68-24.52-13.93-25.13-3.54-.51-21.83,7.43-22.34,6.38s2.48-9.84,7.15-25.51C78,318.75,70.88,324.51,66.31,329.22Z" style="fill: rgb(255, 196, 192);"></path><path d="M106,349c8.83-1.06,11.26,0,18.24-4.82,4.59-3.18,8.59-1.63,5.91,3.52-4.38,8.42-15.5,12.18-19.72,12.37Z" style="fill: rgb(255, 196, 192);"></path><path d="M82.41,357s10-5.31,19.31-7.36c6.43-1.43,20.77-3,34.19,11.42,3.18,3.41,5.3,10.53-1.92,6.85-5.13-2.62-7.59-5.83-10.85-6.81,0,0,1.61,9.37-1.93,12.43a85.8,85.8,0,0,1-9.83,7.32,18.72,18.72,0,0,1-1.53-1.71s-3.58,2.54-10.21,1.78Z" style="fill: rgb(255, 196, 192);"></path><path d="M108.08,349.29c3,1.66,9.39,5.27,13.57,10,4.64,5.3,12.15,16.76,8.2,20.14-2.89,2.48-6.14-1.64-6.14-1.64s2.1,5.39-1,7.06c-2.83,1.52-5.16-1.82-5.16-1.82s.72,3.49-2.29,4.43c-3.61,1.14-4.52-6.36-9.17-8.38C105,378.67,108.08,349.29,108.08,349.29Z" style="fill: rgb(255, 196, 192);"></path><path d="M115.23,363.3a28.1,28.1,0,0,1,8.53,14.39c0,.15-.07.24-.12.12a68.57,68.57,0,0,0-8.46-14.46A0,0,0,0,1,115.23,363.3Z" style="fill:#263238"></path><path d="M110,368.14c2.06,2,6.64,8.49,7.65,14.88,0,.14-.08.23-.12.1A75,75,0,0,0,110,368.18S110,368.12,110,368.14Z" style="fill:#263238"></path><path d="M123.14,361.07c2.85.9,4.69,2.35,7.08,4.08a39.81,39.81,0,0,0,3.66,2.41c1.16.66,2.86,1.65,4.13.68a2.35,2.35,0,0,0,.57-2.33,11.34,11.34,0,0,0-1.51-3.3s0-.09.06-.05a16.21,16.21,0,0,1,1.67,2.95,3.83,3.83,0,0,1,.22,2.24c-.45,1.58-2.33,1.75-3.64,1.29a12.42,12.42,0,0,1-2.24-1.14c-.69-.41-1.36-.86-2-1.32-1.35-.95-2.64-2-4-2.94a36.3,36.3,0,0,0-4.06-2.47S123.08,361.06,123.14,361.07Z" style="fill:#263238"></path><path d="M129,371.29a91.63,91.63,0,0,0-5.88-10.15,0,0,0,1,1,.06-.05c2.2,2.16,5.68,7.87,6.49,9.69a15.77,15.77,0,0,1,1.66,6.09c-.06,3-2.06,3.53-2.8,3.66a3.89,3.89,0,0,1-2.54-.47,7.75,7.75,0,0,1-2.27-2.22s0-.1.06,0c1,1.2,2.72,2.4,4.35,2.22a2.75,2.75,0,0,0,1.88-1,3.5,3.5,0,0,0,.52-2.41A16.43,16.43,0,0,0,129,371.29Z" style="fill:#263238"></path><path d="M82.41,357l13.32,29.48s-54.56,11.15-59.07,1.61S54,342,63.69,331.38c11.26-12.28,12.59-8,9.94,3-2.76,11.54-8,28.21-8,28.21Z" style="fill:#90AFC5"></path><path d="M88.8,371.17l0,0a14.39,14.39,0,0,1-5,1.86,24.37,24.37,0,0,1-10.58-.36,43.11,43.11,0,0,1-7-2.48l-.88-.38-2-.9a45.71,45.71,0,0,0-9.8-3.62,15.8,15.8,0,0,0-4.6-.22h0a1.84,1.84,0,0,0-.41,0h-.15c-.43,0-.85.16-1.27.24s-.81.26-1.22.38-.76.35-1.12.55h0c-.18.13-.37.25-.56.37a5.74,5.74,0,0,0-.5.36A16.09,16.09,0,0,0,40.2,371c-.45.69-.88,1.39-1.29,2.11.3-.8.63-1.62,1-2.44,0,0,0,0,0,0h0a16.72,16.72,0,0,1,3.41-3.91l.27-.22.58-.38.26-.17c.39-.22.8-.41,1.21-.6s.85-.31,1.29-.41.87-.21,1.32-.26l.52-.07c.14,0,.27,0,.41,0a16.64,16.64,0,0,1,4.4.23,44.81,44.81,0,0,1,9.94,3.64c.88.4,1.76.8,2.64,1.18l.82.36a42.39,42.39,0,0,0,6.34,2.18,23.81,23.81,0,0,0,10.32.34,13.89,13.89,0,0,0,4.82-1.79l.1-.06ZM70.38,346.28l-.64.14c-.87.19-1.7.48-2.55.72-.55.2-1.09.4-1.63.62a1.78,1.78,0,0,0-.29.12,21.09,21.09,0,0,0-2.91,1.41,28.86,28.86,0,0,0-8.06,6.78,43.2,43.2,0,0,0-3.11,4.28c-.86,1.38-1.68,2.78-2.43,4.21-.07.12-.13.25-.2.38l-.1.2c-.41.77-.8,1.54-1.18,2.32-.09.18-.18.35-.26.53-1.05,2.14-2.05,4.3-3.11,6.42A46.44,46.44,0,0,1,41.33,379a16.32,16.32,0,0,1-3.42,3.89,10.83,10.83,0,0,1-1,.72c-.25.14-.51.27-.77.39,0,.2,0,.39,0,.57.35-.17.7-.34,1-.53a12.18,12.18,0,0,0,1.11-.77,16.73,16.73,0,0,0,3.49-4,46.53,46.53,0,0,0,2.57-4.63c1.06-2.14,2-4.31,3.08-6.45.08-.18.17-.35.26-.53.4-.84.82-1.68,1.25-2.51h0l.3-.56c.71-1.36,1.48-2.69,2.29-4a46.14,46.14,0,0,1,3.07-4.27,28.82,28.82,0,0,1,7.95-6.76,24.06,24.06,0,0,1,3-1.47l.29-.12,1.47-.56c.84-.23,1.67-.53,2.52-.72l.64-.14h0l.06-.22Zm-4.59,1.63a1.14,1.14,0,0,0-.23-.15q-1.23-.81-2.52-1.5a20.72,20.72,0,0,0-8.52-2.56l-.12.19a20.23,20.23,0,0,1,8.52,2.59c.8.43,1.59.9,2.35,1.4a1.14,1.14,0,0,1,.23.15c1.28.83,2.51,1.75,3.71,2.71a2.45,2.45,0,0,0,.08-.29C68.16,349.55,67,348.7,65.79,347.91Zm22.07,21.18h0c-2.88-3.1-5.72-6.26-8.65-9.33-.4-.42-.8-.84-1.22-1.25l-.37.13c.45.46.88.92,1.32,1.38,3.21,3.39,6.3,6.89,9.49,10.32ZM76.4,359a32.2,32.2,0,0,1-3.6,5.83A15.66,15.66,0,0,1,69,368.3a12.16,12.16,0,0,1-2.82,1.28,9,9,0,0,1-.89.25c-.36.1-.73.18-1.1.25a23.85,23.85,0,0,1-10.33-.34,41.37,41.37,0,0,1-6.21-2.13l-.34-.15q-1.31-.56-2.58-1.14l-.54-.25L44,366l-1.74-.78-.26.52,1.54.69.21.1.32.15c1,.43,1.93.87,2.91,1.29l.34.15a43.38,43.38,0,0,0,6.33,2.18,24.53,24.53,0,0,0,10.58.35,17.58,17.58,0,0,0,1.87-.46c.28-.08.56-.17.83-.27a13.1,13.1,0,0,0,2.32-1.13,16.1,16.1,0,0,0,4-3.56,33.7,33.7,0,0,0,4-6.49Z" style="fill:#fff"></path><path d="M49,370.07a61.72,61.72,0,0,1,8-4.5,60.11,60.11,0,0,1,8.5-3.22c1.65-.51,3.32-.94,5-1.38,0,0,.07.06,0,.08a79.15,79.15,0,0,0-8.57,3.14q-4.19,1.77-8.29,3.69c-1.56.72-3.07,1.52-4.6,2.29A.06.06,0,0,1,49,370.07Z" style="fill:#263238"></path><path d="M82.26,356.94c-.27.07-15.22,4.68-15.71,4.9.06-.22,2.88-8.07,3.3-9.22l.12-.34c.28-.51.57-1,.83-1.54l1-2s0,0,0,0l-1.08,2c-.16.3-.32.61-.47.92.28-.81.54-1.62.81-2.44.43-1.31.81-2.62,1.19-3.94,0,0,0-.06-.07,0-.83,2.29-1.74,4.55-2.58,6.84s-4.06,10.7-4,10.7,16.47-5.46,16.79-5.58A.11.11,0,0,0,82.26,356.94Z" style="fill:#263238"></path><path d="M82.9,376c-1.47-3.29-2.91-6.59-4.5-9.83-.9-1.84-1.79-3.68-2.71-5.51,0-.07-.16,0-.13.05,1.34,3.36,2.69,6.73,4.19,10s2.94,6.57,4.47,9.84q1.31,2.77,2.77,5.48s.08,0,.07,0C85.83,382.64,84.37,379.33,82.9,376Z" style="fill:#263238"></path><path d="M96.42,387c-.53-.91-1.19-2.22-1.75-3.11-.15-.24-.33-.19-.21.05.39.83.72,1.75,1.11,2.6l-2.3.4-2.65.51c-1.73.32-3.47.62-5.2.91q-5.3.87-10.6,1.52a209.9,209.9,0,0,1-21.41,1.59c-2,0-4,0-6,0a57.29,57.29,0,0,1-5.91-.4s-.06.09,0,.1a32.9,32.9,0,0,0,5.13.76c1.81.13,3.62.2,5.43.22,3.62,0,7.23-.14,10.83-.4,7.14-.51,14.26-1.34,21.34-2.45q3-.47,5.93-1c1-.18,2-.36,3-.56A20.07,20.07,0,0,0,96.42,387Z" style="fill:#263238"></path><path d="M86.29,335.47C82.59,335.93,77,329.75,75,325c-.13-.32.69-3.5,1.5-7.41.49-2.37,1-5,1.24-7.47,0-.51,15,5.4,15,5.4a39.44,39.44,0,0,0-2.51,9.26,5.79,5.79,0,0,0,0,1V326C90.35,327.93,89.87,335,86.29,335.47Z" style="fill: rgb(255, 196, 192);"></path><path d="M78.72,310.29c.26,4.23,1.75,14.53,9.94,15.6a8.87,8.87,0,0,0,1.59.09.46.46,0,0,0,0-.17,6.94,6.94,0,0,1,0-1,39.23,39.23,0,0,1,2.52-9.26S82,311.27,78.72,310.29Z" style="fill:#263238"></path><path d="M74.63,293.28c-1.21,5.6,3,21.16,7.17,24.36,6.07,4.64,15.34,4.36,19.11-2.78,3.66-6.92-2.17-27.1-6.78-29.94C87.34,280.74,76.43,285,74.63,293.28Z" style="fill: rgb(255, 196, 192);"></path><path d="M90.9,301.64s-.06.08-.05.12c.35,1,.58,2.26-.26,2.89,0,0,0,.07,0,.06C91.72,304.2,91.4,302.56,90.9,301.64Z" style="fill:#263238"></path><path d="M89.64,300.84c-1.7.38-.81,3.77.77,3.42S91.08,300.52,89.64,300.84Z" style="fill:#263238"></path><path d="M96.79,300.12s.09,0,.1.08c.24,1.05.7,2.22,1.74,2.32,0,0,.05.06,0,.06C97.44,302.73,96.85,301.17,96.79,300.12Z" style="fill:#263238"></path><path d="M97.43,298.78c1.66-.57,2.68,2.78,1.15,3.31S96.05,299.26,97.43,298.78Z" style="fill:#263238"></path><path d="M87.38,298.57c.46-.16.86-.38,1.31-.58a2.39,2.39,0,0,0,1.23-.86.74.74,0,0,0-.19-.88,1.86,1.86,0,0,0-1.87,0,2.66,2.66,0,0,0-1.45,1.29A.79.79,0,0,0,87.38,298.57Z" style="fill:#263238"></path><path d="M98.34,295.9a11.53,11.53,0,0,1-1.44,0,2.34,2.34,0,0,1-1.47-.27.75.75,0,0,1-.19-.89,1.87,1.87,0,0,1,1.68-.8,2.76,2.76,0,0,1,1.86.58A.79.79,0,0,1,98.34,295.9Z" style="fill:#263238"></path><path d="M91.72,311.86c.32.18.66.45,1,.38a2.85,2.85,0,0,0,1.06-.56s.08,0,.06,0a1.45,1.45,0,0,1-1.18.92,1.16,1.16,0,0,1-1.07-.71C91.6,311.87,91.67,311.83,91.72,311.86Z" style="fill:#263238"></path><path d="M92,308.42a3.68,3.68,0,0,0,2.81,1,4.2,4.2,0,0,0,1.3-.28,1,1,0,0,0,.24-.09l.22-.09a.27.27,0,0,0,.15-.3h0s0-.07,0-.11h0l0-.09c-.19-.81-.59-2-.59-2,.33.07,2,.35,1.88-.06a55.93,55.93,0,0,0-4.24-10.46.1.1,0,0,0-.18.08c.95,3.35,2.49,6.51,3.5,9.86a6.31,6.31,0,0,0-1.82-.07c-.1.07.82,2.32.88,2.7v0a5.1,5.1,0,0,1-4-.18C92,308.26,91.91,308.36,92,308.42Z" style="fill:#263238"></path><path d="M95.52,308.82a4.39,4.39,0,0,1-1.36,1.76A1.93,1.93,0,0,1,93,311c-.89,0-1.11-.76-1.13-1.46a4.59,4.59,0,0,1,.11-1.11A5.62,5.62,0,0,0,95.52,308.82Z" style="fill:#263238"></path><path d="M94.16,310.58A1.93,1.93,0,0,1,93,311c-.89,0-1.11-.76-1.13-1.46A2,2,0,0,1,94.16,310.58Z" style="fill:#ff98b9"></path><path d="M76.66,308.58c2.78-1.32,2.61-11.36,2.61-11.36s.67,4.16,1.44,3.92,3-6.4,2.67-10.51a32.16,32.16,0,0,0,8,2.36c3.88.48,7.93-.46,7.82-1.09-.31-1.87-2.84-6.47-5.68-7.77a13.39,13.39,0,0,0-13.41.61c-5.65,3.33-6.57,7.48-7,10.64S75.64,309.07,76.66,308.58Z" style="fill:#263238"></path><path d="M79.08,305.87s-4.09-4.73-6.28-3.22,1.27,8.63,4.09,9.36a2.78,2.78,0,0,0,3.55-1.87Z" style="fill: rgb(255, 196, 192);"></path><path d="M73.84,304.67s0,.06,0,.07c2,.57,3.17,2.24,4.06,4a1.54,1.54,0,0,0-2.33-.19s0,.12.06.1a1.72,1.72,0,0,1,1.94.4,8.69,8.69,0,0,1,1.05,1.42c.1.16.4,0,.32-.15l0,0C78.71,307.84,76.48,304.64,73.84,304.67Z" style="fill:#263238"></path><path d="M90.1,283.36a23.34,23.34,0,0,0-6.5-1.53c-2.49-.16-10.26.9-12,2.57s-1.84,9.05-1.83,10.13.88,7.55,3.32,9,2-9.63,5.53-13.51S90.1,283.36,90.1,283.36Z" style="fill:#90AFC5"></path><path d="M90.1,283.37s-8,2.76-11.52,6.64S75.5,305,73.05,303.52c-1.08-.63-1.64-1.63-2.17-3.33.3-3.26,1.32-8.34,3.8-12,2.33-3.39,6.57-5.29,11.18-6.09A25.71,25.71,0,0,1,90.1,283.37Z" style="opacity:0.1"></path><path d="M74.08,310c0-2.95,2.57-11,5.44-15.7s12-7.88,13.25-7.88c3.14,0,4.26.88,4.74.57s-2.89-2.48-3.8-2.95-3.36-1.58-4.72-1.47-9.7,1.44-12.55,5.2-6.57,14-5.63,16.57c.23.6,1.07.95,1.39,1.81.41,1.13.73,2.44,1.12,3.22S74.08,310.29,74.08,310Z" style="fill:#90AFC5"></path><path d="M80.13,292.26A15.5,15.5,0,0,1,78,290.88a10.94,10.94,0,0,1-1.85-1.75,0,0,0,1,0-.08.05,8,8,0,0,0,1.71,2,6.79,6.79,0,0,0,2.29,1.24C80.16,292.44,80.21,292.3,80.13,292.26Z" style="fill:#263238"></path><path d="M73.88,307.1c-.1-.21-.25-.39-.36-.59a3.77,3.77,0,0,1-.32-.71,6.73,6.73,0,0,0-.41-1.41,5.63,5.63,0,0,0-.75-.94,1.94,1.94,0,0,1-.65-1.16c0-.06-.1-.06-.1,0a5,5,0,0,0,1.12,2.22A8.87,8.87,0,0,1,72.9,306a2.36,2.36,0,0,0,.85,1.18C73.81,307.23,73.91,307.17,73.88,307.1Z" style="fill:#263238"></path><path d="M74.71,303.86c-.3-.32-.62-.6-.89-.95a9.28,9.28,0,0,1-.69-1.07c-.21-.36-.39-.74-.59-1.1s-.53-.85-.74-1.29c0-.06-.11,0-.08.05.22.46.36,1,.57,1.43a11,11,0,0,0,.63,1.17,6.75,6.75,0,0,0,.76,1,3.18,3.18,0,0,0,1,.78S74.73,303.88,74.71,303.86Z" style="fill:#263238"></path><path d="M75.61,300.92a8.45,8.45,0,0,1-1.71-1.72c-.46-.64-.9-1.3-1.32-2,0-.05-.11,0-.08,0a9.77,9.77,0,0,0,1.14,2.17,4.9,4.9,0,0,0,.81.89,5.57,5.57,0,0,0,1.1.67S75.66,301,75.61,300.92Z" style="fill:#263238"></path><path d="M76.61,298.09a2.75,2.75,0,0,1-.82-.74c-.28-.31-.54-.64-.8-1l-.75-.95a3,3,0,0,1-.59-1.05,0,0,0,0,0-.09,0,2.89,2.89,0,0,0,.4,1.13,9.24,9.24,0,0,0,.73,1.11,11.74,11.74,0,0,0,.89,1,2,2,0,0,0,1,.59C76.64,298.23,76.69,298.13,76.61,298.09Z" style="fill:#263238"></path><path d="M77.25,294.55a10.34,10.34,0,0,1-.84-.78c-.27-.27-.52-.56-.77-.84s-.53-.61-.78-.92a0,0,0,0,0-.08.05,8.32,8.32,0,0,0,.61,1,8.22,8.22,0,0,0,.76.9,9.26,9.26,0,0,0,.86.8,3.16,3.16,0,0,0,1,.62s.11-.06.07-.11A5.47,5.47,0,0,0,77.25,294.55Z" style="fill:#263238"></path><path d="M82.28,290.45c-.31-.34-.61-.68-1-1a12.11,12.11,0,0,0-1.11-.9,12.52,12.52,0,0,0-2.37-1.4s-.1,0-.06.08c1.47,1.11,3,2.16,4.43,3.28C82.27,290.56,82.33,290.5,82.28,290.45Z" style="fill:#263238"></path><path d="M83.92,287.83a5.63,5.63,0,0,0-1.06-.89,13.28,13.28,0,0,0-2.6-1.26c-.06,0-.1.06-.05.09.79.46,1.6.91,2.36,1.42a11,11,0,0,1,1.1.8c.35.29.63.65,1,.95,0,0,.08,0,.06,0A3.44,3.44,0,0,0,83.92,287.83Z" style="fill:#263238"></path><path d="M86.3,286.53a6.36,6.36,0,0,0-1-.89,7.42,7.42,0,0,0-2.22-1.14c-.06,0-.09.07,0,.09A15.26,15.26,0,0,1,85.18,286c.33.25.65.52,1,.79s.6.61.95.85c0,0,.05,0,0,0A6.72,6.72,0,0,0,86.3,286.53Z" style="fill:#263238"></path><path d="M88,285c-.32-.23-.66-.45-1-.66a3.87,3.87,0,0,0-1.06-.52,0,0,0,0,0,0,.09l1.87,1.36a10.19,10.19,0,0,1,1.47,1.54s.07,0,.05,0A3.69,3.69,0,0,0,88,285Z" style="fill:#263238"></path><path d="M90.16,284.36a5.84,5.84,0,0,0-2-1.11s-.09.07,0,.09A7.51,7.51,0,0,1,90,284.58a9.9,9.9,0,0,1,1.51,1.66s.08,0,.06,0A5,5,0,0,0,90.16,284.36Z" style="fill:#263238"></path><path d="M93.13,285.5a3.87,3.87,0,0,0-.27-.43,5.12,5.12,0,0,0-.71-.76,10.3,10.3,0,0,0-1.74-1.19c-.06,0-.1.06,0,.09A8.57,8.57,0,0,1,92,284.44a6.78,6.78,0,0,1,.68.74l.29.4a2.19,2.19,0,0,0,.26.41.06.06,0,0,0,.09,0A1.35,1.35,0,0,0,93.13,285.5Z" style="fill:#263238"></path><path d="M94.91,285.56q-.27-.33-.57-.63a6.75,6.75,0,0,0-.65-.55c-.23-.18-.47-.34-.7-.53,0,0-.11,0-.06.08a5.27,5.27,0,0,1,.66.58l.59.59.59.58a8.36,8.36,0,0,0,.58.61,0,0,0,0,0,.06-.05A3.31,3.31,0,0,0,94.91,285.56Z" style="fill:#263238"></path><rect x="96.6" y="398.53" width="65.65" height="2.94" style="fill:#c7c7c7"></rect><polygon points="162.25 398.53 162.25 401.48 117.62 401.48 119.87 398.53 162.25 398.53" style="fill:#a6a6a6"></polygon><polygon points="122.71 401.48 186.69 401.48 192.02 358.02 128.03 358.02 122.71 401.48" style="fill:#c7c7c7"></polygon><path d="M153.47,379.75a3.8,3.8,0,0,0,3.82,3.89,4,4,0,0,0,4-3.89,3.83,3.83,0,0,0-3.83-3.9A4,4,0,0,0,153.47,379.75Z" style="fill:#fff"></path></g></svg>